<?xml version="1.0" standalone="no"?>
<!DOCTYPE svg PUBLIC "-//W3C//DTD SVG 20010904//EN"
 "http://www.w3.org/TR/2001/REC-SVG-20010904/DTD/svg10.dtd">
<svg version="1.0" xmlns="http://www.w3.org/2000/svg"
 width="512.000000pt" height="512.000000pt" viewBox="0 0 512.000000 512.000000"
 preserveAspectRatio="xMidYMid meet">

<g transform="translate(0.000000,512.000000) scale(0.100000,-0.100000)"
fill="#000000" stroke="none">
<path d="M2325 5030 c-286 -32 -535 -98 -781 -208 -128 -58 -245 -123 -244
-137 0 -5 19 -36 42 -67 l41 -57 71 39 c224 123 495 213 776 257 159 24 500
24 660 0 209 -33 453 -103 623 -181 31 -14 57 -24 57 -21 0 2 -8 20 -17 40
l-17 35 38 39 37 38 -87 38 c-186 79 -397 138 -619 171 -120 18 -468 26 -580
14z"/>
<path d="M4166 4911 c-19 -54 -28 -65 -66 -76 -14 -4 -49 -18 -78 -32 l-53
-25 -55 23 -55 23 -65 -65 -65 -65 24 -54 25 -55 -23 -45 c-13 -25 -28 -64
-35 -87 -12 -38 -17 -43 -72 -63 l-59 -21 3 -92 3 -91 54 -21 c52 -21 54 -24
81 -94 16 -39 33 -78 39 -85 8 -10 5 -28 -15 -71 l-27 -57 66 -65 65 -66 57
27 c51 23 58 24 79 11 12 -8 51 -25 85 -38 61 -21 64 -24 85 -77 l22 -55 91
-3 92 -3 21 59 c20 55 25 60 63 72 23 7 62 22 87 35 l45 23 55 -25 54 -24 65
65 65 65 -23 55 -23 55 25 53 c14 29 28 64 32 78 11 38 22 47 76 65 l50 17 -3
95 -3 95 -53 20 c-29 11 -56 27 -58 36 -3 10 -19 49 -35 88 l-30 72 22 52 22
52 -66 65 -65 66 -52 -22 -52 -22 -72 30 c-39 16 -78 32 -88 35 -9 2 -25 29
-36 58 l-20 53 -94 3 -94 3 -18 -50z m240 -340 c64 -29 137 -101 166 -165 34
-77 32 -192 -5 -268 -96 -197 -362 -242 -517 -88 -143 143 -116 389 54 498 87
56 207 65 302 23z"/>
<path d="M770 4689 c-120 -23 -254 -131 -306 -244 -101 -220 -9 -478 210 -585
62 -31 81 -35 167 -38 117 -5 201 18 278 76 132 101 186 216 179 381 -3 85 -8
106 -36 163 -93 190 -287 287 -492 247z m207 -210 c105 -50 156 -179 122 -303
-15 -55 -103 -141 -160 -156 -196 -53 -369 116 -314 305 43 151 208 223 352
154z"/>
<path d="M412 3798 c-156 -260 -266 -586 -313 -928 -18 -124 -18 -496 0 -620
32 -231 103 -493 182 -670 l32 -71 38 37 39 38 35 -17 c20 -9 38 -17 40 -17 3
0 -7 26 -21 58 -78 169 -148 413 -181 622 -24 160 -24 501 0 660 40 256 112
484 221 703 l73 147 -36 24 c-20 14 -48 34 -63 46 l-26 20 -20 -32z"/>
<path d="M4768 3573 l-37 -37 -36 17 c-20 9 -38 17 -40 17 -2 0 12 -37 31 -82
80 -184 138 -389 171 -598 24 -160 24 -501 0 -660 -44 -279 -125 -526 -247
-755 l-49 -91 62 -46 62 -47 17 22 c26 33 131 250 171 352 159 408 205 871
131 1315 -31 186 -99 412 -170 568 l-29 63 -37 -38z"/>
<path d="M1411 3514 c-41 -29 -51 -72 -51 -224 l0 -140 1200 0 1200 0 0 140
c0 152 -10 195 -51 224 -21 15 -125 16 -1149 16 -1024 0 -1128 -1 -1149 -16z
m243 -105 c76 -35 42 -149 -45 -149 -31 0 -69 44 -69 80 0 36 38 80 69 80 11
0 31 -5 45 -11z m272 -12 c20 -17 27 -33 27 -57 0 -39 -40 -80 -79 -80 -35 0
-74 42 -74 80 0 38 39 80 74 80 14 0 37 -11 52 -23z m258 2 c20 -16 26 -29 26
-59 0 -30 -6 -43 -26 -59 -15 -12 -37 -21 -49 -21 -12 0 -34 9 -49 21 -20 16
-26 29 -26 59 0 30 6 43 26 59 15 12 37 21 49 21 12 0 34 -9 49 -21z m1421 -4
c16 -15 25 -36 25 -55 0 -19 -9 -40 -25 -55 l-24 -25 -366 0 -366 0 -24 25
c-16 15 -25 36 -25 55 0 19 9 40 25 55 l24 25 366 0 366 0 24 -25z"/>
<path d="M1367 2983 c-4 -3 -7 -318 -7 -700 l0 -693 1200 0 1200 0 -2 698 -3
697 -1191 3 c-655 1 -1194 -1 -1197 -5z m1638 -218 c342 -91 475 -130 490
-145 19 -19 20 -35 23 -248 2 -125 7 -231 13 -236 5 -6 9 -70 9 -143 0 -114
-2 -135 -16 -140 -9 -3 -25 -1 -35 5 -11 7 -27 17 -38 24 -15 9 -24 7 -49 -10
-36 -26 -58 -28 -66 -6 -3 9 -6 71 -6 139 0 97 3 125 15 135 12 10 15 42 15
166 0 105 -3 154 -11 154 -6 0 -35 -7 -65 -16 l-54 -15 0 -229 c0 -203 -2
-230 -18 -250 -14 -18 -55 -29 -232 -66 -398 -82 -488 -82 -891 1 -177 36
-217 47 -231 65 -16 20 -18 47 -18 250 l0 228 -32 11 c-18 5 -71 20 -118 32
-47 12 -95 31 -107 42 -29 26 -31 86 -5 110 13 12 889 257 952 266 3 1 216
-55 475 -124z"/>
<path d="M2238 2646 c-147 -39 -269 -74 -272 -77 -3 -3 124 -40 282 -82 l288
-77 287 77 c158 42 284 80 280 83 -13 11 -549 150 -574 149 -13 -1 -144 -33
-291 -73z"/>
<path d="M2002 2227 l3 -162 185 -39 c170 -35 198 -38 345 -38 148 -1 174 2
345 38 l185 39 3 162 2 162 -32 -10 c-18 -5 -138 -37 -267 -71 l-234 -62 -121
32 c-67 17 -187 49 -269 71 l-147 39 2 -161z"/>
<path d="M730 1472 c-20 -55 -25 -60 -63 -72 -23 -7 -62 -22 -87 -35 l-45 -23
-55 25 -54 24 -65 -65 -65 -65 23 -55 23 -55 -25 -53 c-14 -29 -28 -64 -32
-78 -11 -38 -22 -47 -76 -66 l-50 -18 3 -94 3 -94 53 -20 c29 -11 56 -27 58
-36 3 -10 19 -49 35 -88 l30 -72 -22 -52 -22 -52 66 -65 65 -66 52 22 52 22
72 -30 c39 -16 78 -32 88 -35 9 -2 25 -29 36 -58 l20 -53 94 -3 94 -3 18 50
c19 54 28 65 66 76 14 4 49 18 78 32 l53 25 55 -23 55 -23 65 65 65 65 -24 54
-25 55 23 45 c13 25 28 64 35 87 12 38 17 43 72 63 l59 21 -3 92 -3 91 -54 21
c-52 21 -54 24 -81 94 -16 39 -33 78 -39 85 -8 10 -5 28 15 71 l27 57 -66 65
-65 66 -57 -27 c-43 -20 -61 -23 -71 -15 -7 6 -46 23 -85 39 -70 27 -73 29
-94 81 l-21 54 -91 3 -92 3 -21 -59z m254 -341 c64 -28 130 -100 156 -169 60
-160 -8 -335 -158 -409 -76 -37 -191 -39 -268 -5 -64 29 -136 102 -166 167
-35 76 -32 190 5 267 78 159 264 223 431 149z"/>
<path d="M4114 1281 c-134 -49 -234 -153 -279 -289 -13 -41 -16 -77 -13 -151
3 -86 7 -105 38 -167 64 -130 186 -221 328 -246 290 -49 553 214 504 504 -25
143 -121 270 -249 331 -61 28 -79 32 -173 34 -82 2 -116 -1 -156 -16z m272
-206 c140 -87 161 -270 45 -386 -183 -184 -480 -4 -411 250 15 55 90 136 145
156 66 25 163 15 221 -20z"/>
<path d="M3591 484 c-214 -108 -444 -180 -701 -221 -159 -24 -500 -24 -660 0
-209 33 -414 91 -597 171 -46 19 -83 33 -83 31 0 -2 8 -20 17 -40 l17 -35 -38
-39 -37 -38 86 -37 c538 -231 1185 -257 1743 -71 164 55 468 195 486 223 3 5
-78 123 -88 128 0 0 -66 -32 -145 -72z"/>
</g>
</svg>